<svg xmlns="http://www.w3.org/2000/svg" width="1000" height="289" viewBox="20.0 141.0 155.5 45.0">
<path d="M133.189 163.233l-7.145 6.722c-.32.246-.666.345-.986.298l-.689-.076-1.479 7.708 10.988-13.372-.689-1.28zm-3.498-18.912c.59-.369 1.23-.541 2.02-.492l31.855.196c.963-.049 1.602.197 1.947.69.494.615.494 1.156 0 1.649l-14.707 18.223 9.287-7.438c.691-.271 1.307-.148 1.848.346.492.319.617.812.395 1.429l-7.268 24.132c-.123.417-.271.738-.566.935-.371.223-.814.296-1.281.246l-31.537-.196c-.863.123-1.479-.173-1.75-.937-.172-.787-.049-1.402.369-1.771l-11.383.541c-.664.124-1.182-.049-1.553-.418-.295-.369-.467-.69-.467-1.06l-6.775.567c-.197.614-.738.811-1.602.614l-3.154-.614-3.154.246h-5.47c-.196.564-.615.861-1.157.861h-6.43c-.222 0-.37-.073-.419-.246l-8.377-.051c-.493.051-.862-.023-1.06-.245-.295-.148-.418-.396-.467-.738l-.124-1.256-.764.738c-.492.369-.961.641-1.33.86-.936.371-2.094.617-3.523.641-2.218.051-3.869-.368-4.928-1.255l-3.4.395-1.577.097c-.395-.047-.641-.22-.69-.491l-4.509.073-2.193.74c-.271.196-.812.296-1.601.296-.32.023-.641-.223-.986-.715l-7.391.22c-.37-.047-.69-.17-.985-.467-.198-.271-.321-.517-.37-.812l.049-1.108c-.788.616-1.528 1.059-2.167 1.354-.789.246-1.578.419-2.391.542l-.812.024c-.124-.024-.296-.124-.493-.271-.246-.345-.369-.615-.369-.911l-2.144-18.297-.937-.171c-.369-.123-.714-.321-.96-.615a1.795 1.795 0 0 1-.37-.912l-2.045-16.694 2.957-.075c1.06.025 3.08.566 6.085 1.551 1.503.543 3.277 1.552 5.297 3.152 0-.27.124-.565.395-.762.296-.223.616-.297.985-.173l1.454.245 2.119.42c1.158.27 2.267.688 3.375 1.255 1.774.911 3.276 1.971 4.558 3.177l6.455 1.478.863.246c.197.197.321.443.369.739l.37.983c.271-.294.863-.59 1.725-.91.887-.32 1.724-.542 2.414-.615 1.108-.123 2.415 0 3.942.319 2.292.543 4.139 1.526 5.543 3.054-.124-.295.05-.591.444-.911.37-.319.714-.492.911-.542l5.125-.023c.419.023.714.146.911.369.198-.296.542-.469.986-.492l5.593.023 3.399-.319c2.021-.123 3.4-.123 4.19-.074 1.034.024 1.97.37 2.906.886.049-.27.099-.516.172-.688.173-.418.566-.665 1.282-.69l6.848-.344 8.008-.812.318-.665.789-.567 9.191-2.166c.543-.223.961-.172 1.23.123.346.246.42.641.248 1.182l-2.244 14.897 3.354-.418 4.729-20.069c.199-.691.422-1.109.57-1.258z" fill-rule="evenodd" clip-rule="evenodd"/>
<path d="M133.879 160.524l-8.451 7.93 5.494-23.246 33.262.369-15.055 18.764.814 3.202 11.137-8.816-7.441 23.911-31.858-.198 14.117-17.852-2.019-4.064z" fill-rule="evenodd" clip-rule="evenodd"/>
<path d="M137.5 156.411l-2.514 2.686 4.854.073 2.096-2.659-4.436-.1zM145.09 169.341l-1.848 2.56h1.946l2.982-3.053-3.08.493z" fill-rule="evenodd" clip-rule="evenodd" fill="none"/>
<path d="M161.326 146.858l-13.896 17.483.91 3.275-4.065.592-3.449 4.751h4.928l12.394-10.637-5.863 19.011-28.015-.322 13.158-16.842-1.948-3.719h5.028l4.336-5.293-7.416-.173-10.225 9.974 4.754-18.224 29.369.124z" fill-rule="evenodd" clip-rule="evenodd" fill="#c6272d"/>
<path d="M113.355 153.58l-4.681 26.594 12.441-.565 2.268-12.484-4.287.786 2.588-16.375-8.329 2.044z" fill-rule="evenodd" clip-rule="evenodd"/>
<path d="M118.283 168.972l2.34-16.203-6.355 1.525-4.116 24.994 10.397-.615 1.75-10.442-4.016.741z" fill-rule="evenodd" clip-rule="evenodd" fill="#c6272d"/>
<path d="M104.363 155.526l-1.06 22.309 10.347-1.674 1.012-9.678-4.338 1.06.395-12.756-6.356.739z" fill-rule="evenodd" clip-rule="evenodd"/>
<path d="M109.365 168.649l.418-12.877-4.238.493-1.182 20.387 8.623-1.057.664-7.879-4.285.933z" fill-rule="evenodd" clip-rule="evenodd" fill="#c6272d"/>
<path d="M96.675 155.969l-4.213 23.147 6.554.911.961-6.131.64 5.639 7.195-.739-5.101-23-6.036.173z" fill-rule="evenodd" clip-rule="evenodd"/>
<path d="M99.977 162.569l-.961 5.022h1.207l-.246-5.022zm-6.455 15.857l4.115-21.472 4.336-.246 4.361 21.227-4.879.394-.91-6.157-1.432.1-.984 6.674-4.607-.52z" fill-rule="evenodd" clip-rule="evenodd" fill="#c6272d"/>
<path d="M84.085 157.002l-.099 8.768 1.084 1.083.862 12.707c3.967.172 6.431.222 7.342.099.69-.123 1.529-.468 2.391-1.083.936-.69 1.477-1.355 1.602-2.045.195-.788.27-1.552.246-2.34-.051-.86-.246-1.551-.591-2.092l-1.307-2.267c1.281-1.427 2.044-2.485 2.267-3.152.148-.542.246-1.429.271-2.781 0-1.405-.074-2.339-.271-2.881-.295-.788-.74-1.479-1.331-2.167-.813-.961-1.749-1.6-2.784-1.945-1.06-.37-2.044-.566-2.957-.616l-2.291.122-4.434.59z" fill-rule="evenodd" clip-rule="evenodd"/>
<path d="M96.282 159.908c1.255 1.28 1.478 3.448.566 6.452-.32 1.108-1.306 2.119-3.006 2.98l1.527 1.771c.444.542.74 1.035.912 1.43.247.615.37 1.33.319 2.141-.049.912-.418 1.774-1.182 2.587-.74.788-1.479 1.23-2.218 1.353-.961.174-3.055.174-6.282 0l-.666-12.262-1.109-1.033-.171-7.512 5.1-.419c1.355-.073 2.537.123 3.572.592.814.369 1.676.985 2.638 1.92zm-6.703 1.921l.321 4.531c.862-.739 1.233-1.648 1.207-2.758-.05-1.109-.591-1.723-1.528-1.773zm1.036 13.717c.616-.321.862-.74.813-1.281-.05-.492-.42-.935-1.036-1.379l.223 2.66z" fill-rule="evenodd" clip-rule="evenodd" fill="#c6272d"/>
<path d="M72.407 156.88l-1.922 23.221 7.934.073.074-1.428 1.034 1.527h5.742v-23.319l-5.841-.074-.245 3.472-1.848-3.398-4.928-.074z" fill-rule="evenodd" clip-rule="evenodd"/>
<path d="M80.513 158.111h3.449l.321 21.129-4.115.122-2.242-4.507-.419 4.212-5.863-.148 1.748-21.054h3.45l3.252 6.771.419-6.525z" fill-rule="evenodd" clip-rule="evenodd" fill="#f4e544"/>
<path d="M70.485 164.882l.493-5.638c-1.774-2.045-3.745-3.275-5.839-3.718-1.601-.369-2.981-.468-4.189-.296-1.182.196-2.415.665-3.695 1.429-1.109.737-1.971 1.575-2.488 2.462-.37.615-.739 1.649-1.158 3.054a25.551 25.551 0 0 0-.814 4.555c-.221 1.97-.172 3.693.075 5.172.197 1.502.565 2.658 1.059 3.446.419.641 1.108 1.38 2.094 2.218.961.763 2.02 1.354 3.252 1.797 1.28.442 2.513.689 3.695.689 1.108 0 2.045-.197 2.833-.566.542-.245 1.159-.664 1.774-1.281a12.736 12.736 0 0 0 1.799-2.116c.689-1.109 1.157-2.192 1.355-3.202.295-1.453.494-4.038.616-7.755l-.862-.25z" fill-rule="evenodd" clip-rule="evenodd"/>
<path d="M69.918 159.244c-2.636-2.167-4.977-3.227-7.022-3.227-2.341 0-4.484.813-6.455 2.414-.689.616-1.306 1.649-1.798 3.128-.542 1.501-.837 3.348-.96 5.491-.149 2.635-.025 4.628.369 6.031.542 1.972 1.725 3.448 3.572 4.483 1.824 1.01 3.499 1.551 5.051 1.551 1.208.05 2.193-.247 2.957-.812l2.021-1.601c.788-.788 1.305-1.602 1.601-2.562.443-1.43.665-2.363.665-2.781l.147-5.591-8.623-.888.098 3.817 3.844.395c.616 1.821-.147 2.512-2.341 2.094-1.676-.272-2.834-.765-3.351-1.479-.615-.763-.789-1.993-.492-3.693.443-2.732 1.749-4.088 3.843-4.014 1.528.05 2.513.911 3.006 2.511l3.03.445.838-5.712z" fill-rule="evenodd" clip-rule="evenodd" fill="#f4e544"/>
<path d="M53.806 179.535l6.947-.591-5.469-24.206-6.529-1.527-4.213 25.658 7.587.247.174-4.998 1.503 5.417z" fill-rule="evenodd" clip-rule="evenodd"/>
<path d="M52.87 172.171l-1.307.1-.715 4.581-5.174.342 3.696-22.702 5.026 1.157 4.682 22.482-4.682.419-1.526-6.379z" fill-rule="evenodd" clip-rule="evenodd" fill="#f4e544"/>
<path d="M52.056 163.603l-.42 3.644h.987l-.567-3.644zM41.338 149.001c-.961-.295-2.144-.543-3.671-.838l-1.503 31.396 8.033-.148.493.641 7.367-2.832-4.854-8.248c2.414-2.167 3.695-4.877 3.868-8.127.147-3.521-1.331-6.601-4.435-9.259-1.282-1.083-3.055-1.946-5.298-2.585z" fill-rule="evenodd" clip-rule="evenodd"/>
<path d="M49.468 160.45c-.049 3.275-1.453 5.91-4.188 7.906l5.075 8.371-5.568 2.191-2.267-5.639-.074 5.22-5.519.173 1.404-29.524c.492.222 1.109.418 1.848.591 1.404.319 2.785.887 4.188 1.748a10.54 10.54 0 0 1 3.276 3.078c1.234 1.724 1.85 3.694 1.825 5.885z" fill-rule="evenodd" clip-rule="evenodd" fill="#f4e544"/>
<path d="M43.753 160.524l-.247 3.693c.789-.196 1.232-.738 1.282-1.6.024-.911-.296-1.599-1.035-2.093zM32.099 146.489c-2.637-1.281-5.47-2.02-8.55-2.267l1.922 15.071 2.093.319 2.268 19.428c4.804-1.279 7.933-3.816 9.437-7.634 1.207-2.928 1.897-5.466 2.143-7.632a15.557 15.557 0 0 0-.615-6.747c-.69-2.241-1.848-4.31-3.4-6.182-1.603-1.943-3.377-3.421-5.298-4.356z" fill-rule="evenodd" clip-rule="evenodd"/>
<path d="M36.682 151.955c1.28 1.601 2.192 3.521 2.71 5.688.714 2.881.738 6.009.049 9.332-.986 4.95-3.868 8.497-8.624 10.54L28.649 158.8l-2.144-.32-1.773-12.978c1.355 0 2.956.32 4.853.986 2.662.936 5.002 2.783 7.097 5.467z" fill-rule="evenodd" clip-rule="evenodd" fill="#f4e544"/>
<path d="M32 159.121l.838 7.017c1.724-.887 2.538-2.216 2.488-3.938-.024-1.429-1.133-2.464-3.326-3.079zM70.658 162.913c1.971 0 3.646.689 5.051 2.093 1.38 1.38 2.095 3.078 2.095 5.048 0 1.971-.715 3.646-2.095 5.048-1.404 1.379-3.08 2.093-5.051 2.093-2.02 0-3.695-.714-5.1-2.093-1.405-1.402-2.094-3.077-2.094-5.048 0-1.97.689-3.668 2.094-5.048 1.405-1.403 3.08-2.093 5.1-2.093z" fill-rule="evenodd" clip-rule="evenodd"/>
<path d="M64.498 170.054c0-1.697.616-3.176 1.798-4.358 1.183-1.183 2.661-1.797 4.361-1.797 1.675 0 3.154.614 4.336 1.797 1.208 1.183 1.774 2.661 1.774 4.358 0 1.676-.566 3.153-1.774 4.334-1.182 1.207-2.661 1.822-4.336 1.822-1.7 0-3.178-.615-4.361-1.822-1.182-1.181-1.798-2.659-1.798-4.334z" fill-rule="evenodd" clip-rule="evenodd" fill="#e7a95c"/>
<path d="M70.534 166.558l.863 2.633h2.734l-2.216 1.602.836 2.586-2.217-1.601-2.217 1.601.863-2.586-2.217-1.602h2.709l.862-2.633z" fill-rule="evenodd" clip-rule="evenodd" fill="#cd3132"/>
<path d="M168.92 149.475v-3.76h1.668c.336 0 .59.035.766.103a.837.837 0 0 1 .418.358c.104.17.156.358.156.567 0 .266-.088.49-.26.675-.174.183-.439.299-.801.348.133.063.232.125.301.188.145.133.283.3.412.5l.65 1.021h-.621l-.498-.78a6.794 6.794 0 0 0-.359-.519c-.094-.12-.178-.203-.252-.251s-.15-.081-.227-.1a1.4 1.4 0 0 0-.277-.019h-.576v1.668h-.5v.001zm.5-2.099h1.068c.227 0 .406-.023.533-.069a.573.573 0 0 0 .293-.227.618.618 0 0 0 .1-.337.556.556 0 0 0-.193-.438c-.129-.115-.334-.173-.611-.173h-1.189v1.244h-.001z" fill-rule="evenodd" clip-rule="evenodd"/>
<path d="M173.643 147.578c0 .855-.365 1.63-.953 2.189a3.3 3.3 0 0 1-2.281.902h-.006a3.301 3.301 0 0 1-2.283-.903 3.007 3.007 0 0 1-.951-2.186v-.004c0-.854.363-1.629.951-2.188a3.306 3.306 0 0 1 2.283-.902h.004a3.31 3.31 0 0 1 2.285.903c.586.559.949 1.332.951 2.186v.003zm-.352.001v-.004a2.666 2.666 0 0 0-.842-1.932 2.949 2.949 0 0 0-2.043-.806h-.004a2.95 2.95 0 0 0-2.041.805 2.664 2.664 0 0 0-.842 1.935v.004c0 .754.322 1.438.842 1.932a2.953 2.953 0 0 0 2.041.807h.006c.797-.001 1.518-.309 2.039-.805s.844-1.181.844-1.936z"/>
</svg>