<svg xmlns="http://www.w3.org/2000/svg" viewBox="62.8 162.2 16 16">
  <path d="M70.658 162.913c1.971 0 3.646.689 5.051 2.093 1.38 1.38 2.095 3.078 2.095 5.048 0 1.971-.715 3.646-2.095 5.048-1.404 1.379-3.08 2.093-5.051 2.093-2.02 0-3.695-.714-5.1-2.093-1.405-1.402-2.094-3.077-2.094-5.048 0-1.97.689-3.668 2.094-5.048 1.405-1.403 3.08-2.093 5.1-2.093z" fill-rule="evenodd" clip-rule="evenodd"/>
  <path d="M64.498 170.054c0-1.697.616-3.176 1.798-4.358 1.183-1.183 2.661-1.797 4.361-1.797 1.675 0 3.154.614 4.336 1.797 1.208 1.183 1.774 2.661 1.774 4.358 0 1.676-.566 3.153-1.774 4.334-1.182 1.207-2.661 1.822-4.336 1.822-1.7 0-3.178-.615-4.361-1.822-1.182-1.181-1.798-2.659-1.798-4.334z" fill-rule="evenodd" clip-rule="evenodd" fill="#e7a95c"/>
  <path d="M70.534 166.558l.863 2.633h2.734l-2.216 1.602.836 2.586-2.217-1.601-2.217 1.601.863-2.586-2.217-1.602h2.709l.862-2.633z" fill-rule="evenodd" clip-rule="evenodd" fill="#cd3132"/>
</svg>
